# xmcd
#
# Track frame offsets:
#	150
#	13567
#	27432
#	41807
#	54797
#	66540
#	77795
#	90572
#	106222
#	118910
#	126050
#	142640
#	149215
#	167042
#	179315
#	186537
#	202205
#	217790
#	229130
#	244925
#
# Disc length: 3447
#
# Revision: 1
# Processed by: cddbd v1.5.1PL0 Copyright (c) Steve Scherf et al.
# Submitted via: CDex 1.51
# Normalized: r0:TRMNUM
#
DISCID=270d7514
DTITLE=リチャード・クレイダーマン - リチャード・クレイダーマン・オン・ＴＶ
DYEAR=1997
DGENRE=Instrumental
TTITLE0=星のセレナーデ Coup De Coeur
TTITLE1=渚のアデリーヌ Ballade Pour Adeline
TTITLE2=愛しのクリスティーヌ Souvenir D'enfance
TTITLE3=母への手紙 Lettre A Ma Mere
TTITLE4=レディー・ディー Lady Di
TTITLE5=鳥を夢みて Murmures
TTITLE6=パンドラの旅 Voyage A Venice
TTITLE7=秋のささやき A Comme Amour
TTITLE8=午後の旅立ち Triste Coeur
TTITLE9=子供のためのロンド Rondo Pour Un Tout Petit Enfant
TTITLE10=虹色の心 Couleur Tendresse
TTITLE11=ドランの微笑 Dolannes Melodie
TTITLE12=愛のコンチェルト Concerto Pour Une Jeune Fille Nommee"Je T'Aime"
TTITLE13=夢の中のウエディング Mariage D'amour
TTITLE14=ノスタルジー Nostalgy
TTITLE15=美しいままで Une Folle Envie D'aimer
TTITLE16=リストの愛の夢 Liebestraum
TTITLE17=春風のめぐりあい Les Rendez-vous Du Hasard
TTITLE18=ハヴ・アイ・トールド・ユー・レイトリー Have I Told You Lately
TTITLE19=炎のランナー Chariots Of Fire
EXTD=YEAR: 199712.17
EXTT0=
EXTT1=
EXTT2=
EXTT3=
EXTT4=
EXTT5=
EXTT6=
EXTT7=
EXTT8=
EXTT9=
EXTT10=
EXTT11=
EXTT12=
EXTT13=
EXTT14=
EXTT15=
EXTT16=
EXTT17=
EXTT18=
EXTT19=
PLAYORDER=
